<?xml version="1.0" encoding="UTF-8"?>
<svg id="a" data-name="Ebene 1" xmlns="http://www.w3.org/2000/svg" width="10.469cm" height="3.319cm" viewBox="0 0 296.764 94.088">
  <line x1="65.519" y1="86.098" x2="296.764" y2="86.098" fill="none" stroke="#fff" stroke-miterlimit="10" stroke-width="2"/>
  <g>
    <path d="m108.216,85.935c0,3.319-1.69,6.176-4.117,7.447-.866.455-1.823.706-2.832.706h-26.465v-5.505h28.578c.203.014.403.014.598,0,.994-.068,1.849-.501,2.309-1.275.878-1.477-.016-3.63-1.998-4.808-1.61-.956-3.44-.978-4.54-.161-.038.025-.075.055-.111.087-1.613,1.27-3.397,2.262-5.302,2.916-1.644.568-3.377.885-5.169.916-.097.002-.195.002-.292.002s-.195,0-.292-.002c-10.555-.185-19.063-10.279-19.063-22.704s8.508-22.521,19.063-22.706c.097-.002.195-.002.292-.002s.195,0,.292.002c10.555.184,19.063,10.279,19.063,22.706,0,5.611-1.734,10.747-4.611,14.708,2.68,1.131,4.597,4.138,4.598,7.673Zm-3.306-12.846c3.923-6.597-.076-16.215-8.934-21.48-8.856-5.266-19.214-4.188-23.138,2.409-3.924,6.597.076,16.213,8.934,21.48,8.857,5.267,19.216,4.186,23.138-2.409Z" fill="#8d5353"/>
    <path d="m149.349,63.447c0,.761-.033,1.52-.098,2.276v.017h-35.014c1.674,3.628,4.749,7.066,8.906,9.538,8.773,5.215,19.031,4.146,22.918-2.386.006-.011.012-.02.018-.031l1.213.719c-3.255,7.567-9.891,12.357-17.115,12.357-10.518,0-19.173-10.152-19.173-22.49s8.655-22.491,19.173-22.491,19.17,10.152,19.171,22.491Zm-3.66-3.159c-1.744-3.306-4.654-6.398-8.477-8.671-8.773-5.215-19.033-4.148-22.918,2.386-1.13,1.903-1.597,4.058-1.472,6.286h32.867Z" fill="#8d5353"/>
    <path d="m164.263,84.516v1.392c-.134.015-.27.027-.405.037h-1.277c-5.42-.386-9.713-5.665-9.713-12.12V24.792h5.679l.025,38.177.009,15.907c-.142,1.117.043,2.205.606,3.151.98,1.65,2.89,2.501,5.069,2.483l.006.006Z" fill="#8d5353"/>
    <path d="m202.211,41.018v45.073h-5.463v-7.426c-3.456,4.482-8.426,7.328-13.963,7.424-.097.002-.193.002-.29.002s-.193,0-.29-.002c-10.475-.183-18.92-10.202-18.92-22.534s8.445-22.353,18.92-22.536c.096-.002.193-.002.29-.002.096,0,.193,0,.29.002,5.537.097,10.507,2.941,13.962,7.424v-7.425h5.464Zm-5.464,18.057c0-.529-.17-1.046-.491-1.466-1.709-2.241-3.977-4.284-6.712-5.909-8.789-5.226-19.069-4.156-22.964,2.392-3.894,6.547.075,16.091,8.866,21.32,7.248,4.311,15.514,4.337,20.37.542.588-.46.931-1.166.931-1.912v-14.966Z" fill="#8d5353"/>
    <path d="m219.514,84.662v1.392c-.135.014-.269.027-.404.037h-1.276c-5.422-.386-9.715-5.665-9.715-12.12v-27.543h-1.564v-5.732h1.564v-15.756h5.68l.011,15.756h5.628v5.732h-5.623l.01,16.688.012,15.908c-.142,1.116.043,2.205.606,3.151.979,1.65,2.89,2.501,5.067,2.482l.005.005Z" fill="#8d5353"/>
    <path d="m257.288,63.447c0,.761-.033,1.52-.098,2.276v.017h-35.015c1.675,3.628,4.749,7.066,8.906,9.538,8.772,5.215,19.031,4.146,22.918-2.386.006-.011.013-.02.018-.031l1.214.719c-3.255,7.567-9.891,12.357-17.114,12.357-10.518,0-19.174-10.152-19.174-22.49s8.656-22.491,19.174-22.491,19.17,10.152,19.171,22.491Zm-3.659-3.159c-1.744-3.306-4.655-6.398-8.478-8.671-8.772-5.215-19.033-4.148-22.918,2.386-1.13,1.903-1.597,4.058-1.472,6.286h32.867Z" fill="#8d5353"/>
    <path d="m272.202,84.516v1.392c-.135.015-.27.027-.406.037h-1.277c-5.42-.386-9.713-5.665-9.713-12.12V24.792h5.68l.024,38.177.01,15.907c-.142,1.117.043,2.205.606,3.151.979,1.65,2.89,2.501,5.069,2.483l.007.006Z" fill="#8d5353"/>
    <path d="m286.187,84.516v1.392c-.135.015-.27.027-.406.037h-1.277c-5.42-.386-9.713-5.665-9.713-12.12V24.792h5.68l.024,38.177.01,15.907c-.142,1.117.043,2.205.606,3.151.979,1.65,2.89,2.501,5.069,2.483l.007.006Z" fill="#8d5353"/>
    <path d="m295.49,35.31c-.916,1.541-3.335,1.793-5.403.563-2.069-1.23-3.003-3.476-2.087-5.017.916-1.541,3.336-1.793,5.404-.563,2.068,1.229,3.003,3.477,2.086,5.017Zm-6.477,50.781v-45.181h5.463v45.181h-5.463Z" fill="#8d5353"/>
  </g>
  <g>
    <path d="m28.637,77.982c.268-.639.551-1.299.821-1.964,4.084-10.079,8.166-20.159,12.248-30.239q.384-.948-.63-.894c-1.828.098-3.162-.919-3.223-2.456-.064-1.62,1.126-2.723,2.932-2.779,4.01-.124,7.172-1.839,9.291-5.252,3.38-5.442.789-12.507-5.378-14.846-6.251-2.371-13.131,1.009-14.769,7.252-.187.713-.273,1.436-.292,2.171-.046,1.787-1.139,2.871-2.854,2.845-1.606-.024-2.693-1.136-2.631-2.857.228-6.4,3.469-10.854,9.043-13.733,1.675-.865,3.484-1.372,5.368-1.536.672-.059.765-.3.572-.913-1.952-6.219-9.37-9.346-15.419-6.427-3.971,1.916-6.08,5.108-6.198,9.553-.046,1.747-.792,2.575-2.548,2.892-4.658.843-7.842,3.386-9.163,8.039-.438,1.543-.26,3.131-.277,4.698-.04,3.829-.007,7.659-.014,11.489-.002,1.236-.676,2.191-1.766,2.57-1.113.387-2.376.061-3.117-.81-.421-.495-.616-1.069-.615-1.723.005-4.78-.055-9.561.02-14.34.102-6.578,4.701-12.404,11.32-14.463.483-.15.763-.324.87-.879,1.29-6.736,5.408-10.933,11.894-12.755,8.425-2.367,17.328,2.194,20.11,10.135.287.821.532,1.655.629,2.521.062.55.308.793.859.978,5.461,1.83,9.253,5.381,10.826,10.997,1.789,6.387-.855,13.113-6.53,16.794-.899.583-1.419,1.28-1.81,2.25-5.251,13.03-10.536,26.047-15.817,39.066-.742,1.828-2.021,2.724-3.839,2.728-1.804.003-3.102-.905-3.841-2.724-4.68-11.534-9.357-23.071-14.031-34.608-.646-1.596-.083-3.062,1.384-3.655,1.505-.609,3.079.067,3.724,1.654,3.013,7.411,6.01,14.829,9.014,22.244,1.161,2.865,2.322,5.73,3.492,8.592.055.133.036.344.345.385Z" fill="#8d5353"/>
    <path d="m.025,52.815c0-.706-.018-1.412.004-2.117.044-1.439,1.256-2.57,2.73-2.568,1.496.002,2.715,1.101,2.75,2.545.035,1.438.04,2.878,0,4.316-.043,1.501-1.275,2.589-2.81,2.556-1.502-.032-2.634-1.131-2.672-2.615-.018-.705-.003-1.411-.003-2.117h.003Z" fill="#8d5353"/>
  </g>
</svg>